# xmcd
# 
# Track frame offsets:
#     150
#     18575
#     48287
#     91725
#     126925
#     150037
#     187962
#     205437
# 
# Disc length: 3312
# 
# Revision: 1
# Processed by: cddbd v1.5.2PL0 Copyright (c) Steve Scherf et al.
# Submitted via: BonkEnc v1.0.5
# 
DISCID=5a0cee08
DTITLE=Stone Cold - Harsh Parsnip
DYEAR=1996
DGENRE=Rock
TTITLE0=Let's Go to Sleep
TTITLE1=Leave You Behind
TTITLE2=Beg!
TTITLE3=Shovel in the Ground
TTITLE4=Slow Down
TTITLE5=Mystery Waters
TTITLE6=St. Pierre Sur Mer
TTITLE7=Don't Waste My Time
EXTD=
EXTT0=
EXTT1=
EXTT2=
EXTT3=
EXTT4=
EXTT5=
EXTT6=
EXTT7=
PLAYORDER=
